<?xml version="1.0" encoding="utf-8"?>
<!-- Generator: Adobe Illustrator 16.0.0, SVG Export Plug-In . SVG Version: 6.00 Build 0)  -->
<!DOCTYPE svg PUBLIC "-//W3C//DTD SVG 1.1//EN" "http://www.w3.org/Graphics/SVG/1.1/DTD/svg11.dtd">
<svg version="1.1" xmlns="http://www.w3.org/2000/svg" xmlns:xlink="http://www.w3.org/1999/xlink" x="0px" y="0px" width="780.6px"
	 height="172px" viewBox="0 0 780.6 172" enable-background="new 0 0 780.6 172" xml:space="preserve">
<g id="Website" display="none">
	<rect x="230.5" y="173" display="inline" fill="none" width="385.5" height="41.7"/>
	<text transform="matrix(0.983 0 0 1 230.4771 211.5)" display="inline" font-family="'Gothic720BT-RomanB'" font-size="54.1978">harryrosen.com</text>
</g>
<g id="Logo">
	<g>
		<rect x="0.1" y="0" width="780.5" height="172"/>
		<g>
			<path fill="#FFFFFF" d="M130.3,104.3c0,5.6,1.9,7.8,8.2,7.8v2.6h-23.6v-2.6c6.3,0,8.1-2.2,8.1-7.8V67.6c0-5.6-1.7-7.6-8.2-7.6
				v-2.6h23.6V60c-6.3,0-8.1,2-8.1,7.6v15.7h28.5V67.6c0-5.6-1.7-7.6-8.2-7.6v-2.6h23.6V60c-6.3,0-8.1,2-8.1,7.6v36.7
				c0,5.6,1.9,7.8,8.2,7.8v2.6h-23.6v-2.6c6.3,0,8.1-2.2,8.1-7.8V86.8h-28.5V104.3z"/>
			<path fill="#FFFFFF" d="M210.4,95.6H191l-1.7,4.2c-0.6,1.4-1.9,4.8-1.9,7.3c0,2.6,1.3,4.8,6.5,5v2.6h-17.1v-2.6
				c3.6,0,4.9-2.6,6.5-6.3l15.6-36.9c-0.7-1.7-2.4-3.7-2.4-3.7V65h8.9l17.1,40.8c1.6,3.7,2.9,6.3,6.5,6.3v2.6h-21.5v-2.6
				c5.3-0.3,6.6-2.4,6.6-5c0-2.6-1.4-5.9-2-7.3L210.4,95.6z M200.8,71.5h-0.1l-8.4,20.7h17L200.8,71.5z"/>
			<path fill="#FFFFFF" d="M246.3,104.6c0,5.5,1.9,7.5,7.6,7.5v2.6h-22.5v-2.6c6,0,7.6-2,7.6-7.5V75.7c0-5.5-1.7-7.5-7.8-7.5v-2.6
				h23c14,0,18.9,5.6,18.9,12.7c0,7.1-6.2,11.4-13,12.2v0.1l10.8,12.5c4.9,5.6,8.4,8.9,11.2,8.9v2.6h-5.5c-5.5,0-7.6-1.7-12.7-8.1
				l-9.8-12.4c-1.9-2.3-2.2-2.7-5.5-2.7h-2.6V104.6z M253.5,88.6c6.6,0,11.5-2.7,11.5-9.6s-5.6-10.5-12.8-10.5h-5.9v20.2H253.5z"/>
			<path fill="#FFFFFF" d="M299.8,104.6c0,5.5,1.9,7.5,7.6,7.5v2.6h-22.5v-2.6c6,0,7.6-2,7.6-7.5V75.7c0-5.5-1.7-7.5-7.8-7.5v-2.6
				h23c14,0,18.9,5.6,18.9,12.7c0,7.1-6.2,11.4-13,12.2v0.1l10.8,12.5c4.9,5.6,8.4,8.9,11.2,8.9v2.6h-5.5c-5.5,0-7.6-1.7-12.7-8.1
				l-9.8-12.4c-1.9-2.3-2.2-2.7-5.5-2.7h-2.6V104.6z M307,88.6c6.6,0,11.5-2.7,11.5-9.6s-5.6-10.5-12.8-10.5h-5.9v20.2H307z"/>
			<path fill="#FFFFFF" d="M361.9,104.6c0,5.5,1.7,7.5,7.8,7.5v2.6h-22.8v-2.6c6.1,0,7.8-2,7.8-7.5V94.1l-12.9-19.6
				c-3.5-5.2-4.5-5.9-8.6-6.3v-2.6h21.3v2.6c-5,0-5.6,1.9-5.6,3.2s1.3,3.7,3.3,6.8l8.2,12.5h0.1l8.4-12.7c1.4-2.2,2-3.9,2-5.3
				c0-1.4-0.7-4.3-5.5-4.5v-2.6h18v2.6c-4.2,0.4-5.2,1.2-8.6,6.3l-12.9,19.6V104.6z"/>
			<path fill="#FFFFFF" d="M420.4,104.5c0,5.6,1.9,7.6,8.2,7.6v2.6H405v-2.6c6.3,0,8.1-2,8.1-7.6V67.6c0-5.6-1.7-7.6-8.2-7.6v-2.6
				h25.5c14,0,20.3,6.8,20.3,14.7c0,7.9-6.6,13.5-14.4,14.7v0.1l10.9,13.7c5.3,6.6,9.4,11.2,13.5,11.5v2.6h-6.3
				c-5.9,0-8.4-3-13.4-9.5l-10.8-14c-2.3-3-3.3-3.5-6.5-3.5h-3.3V104.5z M429.4,84.6c8.9,0,12.7-5.2,12.7-11.4
				c0-6.2-3.7-12.7-14.4-12.7h-7.2v24.1H429.4z"/>
			<path fill="#FFFFFF" d="M486.8,64.6c14.8,0,24.8,9.5,24.8,24.6s-10.2,26.5-25.1,26.5c-14.8,0-24.8-9.5-24.8-24.6
				S472,64.6,486.8,64.6z M487.8,112.5c9.6,0,15.4-7.5,15.4-19.6c0-12.1-5.5-25.2-17.7-25.2c-9.6,0-15.4,7.5-15.4,19.6
				S475.6,112.5,487.8,112.5z"/>
			<path fill="#FFFFFF" d="M520.2,99.7h3c1.4,7.2,4.9,12.5,13.5,12.5s10.7-5.3,10.7-7.9c0-2.6-0.7-4.5-2.3-6.2s-4.8-3.5-6.9-4.6
				l-6.2-3.3c-2.4-1.3-5.8-3.3-7.5-5.2c-1.7-1.9-3.3-4.2-3.3-8.1c0-4,2.2-7.6,5.8-9.8c3.6-2.2,7.5-2.6,11.1-2.6
				c3.6,0,9.8,0.9,14.8,4.3v10.5h-2.7c-1.2-9.9-8.5-11.8-12.1-11.8c-3.6,0-5.9,0.9-7.3,2s-2.4,2.9-2.4,4.9c0,2,0.4,3.3,1.9,5
				s3,2.6,3.9,3l6.2,3.3c3.5,1.9,7.9,4.2,10.4,6.6c2.4,2.4,3.9,5.6,3.9,9.2c0,8.2-7.2,14-17.7,14c-10.5,0-16.6-4-16.6-4V99.7z"/>
			<path fill="#FFFFFF" d="M602,114.7h-40.5v-2.6c6,0,7.6-2,7.6-7.5V75.7c0-5.5-1.7-7.5-7.8-7.5v-2.6h40v10.9h-2.6
				c-2.3-6.8-4.9-8.1-11.4-8.1h-11.1v19.3h8.5c6.8,0,8.9-1.7,9.4-6.9h2.9V98h-2.9c-0.4-5.6-2.6-7.3-9.4-7.3h-8.5v14
				c0,5.5,1.7,7.2,7.2,7.2h3.6c8.4,0,12.8-2.3,15.1-9.5l3,0.9L602,114.7z"/>
			<path fill="#FFFFFF" d="M618.4,73.7l-2-2.2c-2.2-2.3-4.2-3.2-7.5-3.3v-2.6h12.4l33.3,37.9h0.1V76.2c0-5.4-1.4-8-8.5-8v-2.6h19.7
				v2.6c-6,0-7.8,2.6-7.8,8.1V101c0,5.2,0.3,6.8,1.7,13v0.1l-5,1.3c-2.4-3.3-4-5.2-5.8-7.2L622,77.4h-0.1v26.6
				c0,5.5,1.4,8.1,8.5,8.1v2.6h-19.7v-2.6c6,0,7.8-2.6,7.8-8.1V73.7z"/>
		</g>
	</g>
</g>
</svg>
