<?xml version="1.0" encoding="utf-8"?>
<!-- Generator: Adobe Illustrator 22.0.1, SVG Export Plug-In . SVG Version: 6.00 Build 0)  -->
<svg version="1.1" id="Layer_1" xmlns="http://www.w3.org/2000/svg" xmlns:xlink="http://www.w3.org/1999/xlink" x="0px" y="0px"
	 viewBox="0 0 396.2 57.1" style="enable-background:new 0 0 396.2 57.1;" xml:space="preserve">
<g>
	<g>
		<path d="M2.4,14.3v-2.4h16.5v2.4l-7.7,0.9h-1.2L2.4,14.3z M11.2,48.8l7.7,0.9v2.4H2.4v-2.4l7.7-0.9H11.2z M8,30.5
			c0-6.2,0-12.4-0.2-18.6h5.7c-0.2,6.1-0.2,12.3-0.2,18.6v1.8c0,7.4,0,13.6,0.2,19.8H7.8C8,46,8,39.8,8,33.5V30.5z M10.7,32.9v-2.8
			h24.8v2.8H10.7z M27.2,14.3v-2.4h16.5v2.4L36,15.2h-1.2L27.2,14.3z M36,48.8l7.7,0.9v2.4H27.2v-2.4l7.7-0.9H36z M32.8,30.5
			c0-6.2,0-12.4-0.2-18.6h5.7c-0.2,6.1-0.2,12.3-0.2,18.6v3c0,6.2,0,12.4,0.2,18.6h-5.7c0.2-6.1,0.2-12.3,0.2-19.8V30.5z"/>
		<path d="M46.6,49.7l5.9-0.9h1.2l6.5,0.9v2.4H46.6V49.7z M64.2,11.6h3.5l13.6,40.5h-5.5L64,16.1h1.4l-12,35.9h-2.8L64.2,11.6z
			 M57.3,36.2h15.9l0.9,2.8H56.4L57.3,36.2z M68.9,49.7l7.4-0.9h1.2l7.3,0.9v2.4H68.9V49.7z"/>
		<path d="M88.1,14.3v-2.4h8.3v3.3h-0.6L88.1,14.3z M97,48.8l7.7,0.9v2.4H88.1v-2.4l7.7-0.9H97z M93.7,30.5c0-6.2,0-12.4-0.2-18.6
			h5.7C99,18.1,99,24,99,31.1v1.8c0,6.8,0,13,0.2,19.2h-5.7c0.2-6.1,0.2-12.3,0.2-18.6V30.5z M96.4,30.8h7.4c6.4,0,9.4-3.5,9.4-8.3
			c0-5-2.7-7.8-8.8-7.8h-8v-2.8h8.1c9,0,14.3,3.9,14.3,10.6c0,5.1-4,9.7-11.7,10.4l0.2-0.5c4.2,0.4,6.8,2.4,8.4,7.8l2.9,10l-1.8-1.1
			l6.1,0.7v2.4c-1.1,0.4-2.5,0.6-4.2,0.6c-3.7,0-5.3-1-6-3.7l-2.4-9.8c-1.2-4.9-3.4-5.7-8.3-5.7h-5.6V30.8z"/>
		<path d="M126.4,14.3v-2.4h8.3v3.3h-0.6L126.4,14.3z M135.2,48.8l7.7,0.9v2.4h-16.5v-2.4l7.7-0.9H135.2z M132,30.5
			c0-6.2,0-12.4-0.2-18.6h5.7c-0.2,6.2-0.2,12.1-0.2,19.2v1.8c0,6.8,0,13,0.2,19.2h-5.7C132,46,132,39.8,132,33.5V30.5z M134.6,30.8
			h7.4c6.4,0,9.4-3.5,9.4-8.3c0-5-2.7-7.8-8.8-7.8h-8v-2.8h8.1c9,0,14.3,3.9,14.3,10.6c0,5.1-4,9.7-11.7,10.4l0.2-0.5
			c4.2,0.4,6.8,2.4,8.4,7.8l2.9,10l-1.8-1.1l6.1,0.7v2.4c-1.1,0.4-2.5,0.6-4.2,0.6c-3.7,0-5.3-1-6-3.7l-2.4-9.8
			c-1.2-4.9-3.4-5.7-8.3-5.7h-5.6V30.8z"/>
		<path d="M162.9,14.3v-2.4h16.5v2.4l-7.7,0.9h-1.2L162.9,14.3z M179.1,38.6l-12.9-26.7h6.1l10.7,23.6H181l11-23.6h3l-12.7,26.7
			H179.1z M181.4,48.8l8.3,0.9v2.4h-17.7v-2.4l8.3-0.9H181.4z M178.1,34.1h5.3c0,6.8,0,12.7,0.2,18h-5.7
			C178.1,46.9,178.1,41,178.1,34.1z M191.7,15.2l-6.5-0.9v-2.4h13.6v2.4l-5.9,0.9H191.7z"/>
		<path d="M215.8,14.3v-2.4h8.3v3.3h-0.6L215.8,14.3z M224.7,48.8l7.7,0.9v2.4h-16.5v-2.4l7.7-0.9H224.7z M221.4,30.5
			c0-6.2,0-12.4-0.2-18.6h5.7c-0.2,6.2-0.2,12.1-0.2,19.2v1.8c0,6.8,0,13,0.2,19.2h-5.7c0.2-6.1,0.2-12.3,0.2-18.6V30.5z
			 M224.1,30.8h7.4c6.4,0,9.4-3.5,9.4-8.3c0-5-2.7-7.8-8.8-7.8h-8v-2.8h8.1c9,0,14.3,3.9,14.3,10.6c0,5.1-4,9.7-11.7,10.4l0.2-0.5
			c4.2,0.4,6.8,2.4,8.4,7.8l2.9,10l-1.8-1.1l6.1,0.7v2.4c-1.1,0.4-2.5,0.6-4.2,0.6c-3.7,0-5.3-1-6-3.7l-2.4-9.8
			c-1.2-4.9-3.4-5.7-8.3-5.7h-5.6V30.8z"/>
		<path d="M290.3,32c0,13.1-8.8,21-18,21s-18.1-7.3-18.1-21c0-13.1,9-21,18.1-21C281.4,11,290.3,18.3,290.3,32z M272.3,50
			c8.3,0,11.8-9,11.8-18s-3.5-18-11.8-18c-8.3,0-11.9,9-11.9,18S264,50,272.3,50z"/>
		<path d="M316.1,42.7c0-3.9-2.3-5.6-7.4-7.7l-2.2-0.9c-6-2.4-10.1-5.9-10.1-12c0-6.9,5.7-11.1,13.2-11.1c4,0,7.1,1.3,9.6,3.2
			l-0.4,7.8h-3.5l-1.7-9.1l3.8,2v3c-2.9-2.9-5.1-3.9-8.2-3.9c-4.6,0-8.1,2.3-8.1,6.8c0,3.8,2.4,6,6.7,7.7l2.3,0.9
			c7.8,3.1,10.8,6.5,10.8,12.2c0,7.1-5.8,11.4-13.9,11.4c-4.4,0-8.7-1.4-11.4-3.2l0.4-8.4h3.5l1.5,9.2l-3.8-1.7v-2.9
			c3.7,2.7,5.7,3.9,9.7,3.9C312.4,50,316.1,47.3,316.1,42.7z"/>
		<path d="M325.9,14.3v-2.4h8.3v3.3h-0.6L325.9,14.3z M334.1,48.8v3.3h-8.3v-2.4l7.7-0.9H334.1z M331.5,30.5c0-6.2,0-12.4-0.2-18.6
			h5.7c-0.2,6.1-0.2,12.3-0.2,18.6v2.3c0,6.9,0,13.1,0.2,19.3h-5.7c0.2-6.1,0.2-12.3,0.2-18.6V30.5z M350.5,11.9l2.7,3h-19v-3h21.1
			l0.4,10.7h-3.3L350.5,11.9z M347.5,32.9h-13.3v-2.8h13.3V32.9z M356.8,41.4l-0.4,10.7h-22.2v-3h20.2l-2.7,3l1.8-10.7H356.8z
			 M345.6,30.8l0.9-6.4h2.7v14.2h-2.7l-0.9-6.7V30.8z"/>
		<path d="M361.2,49.7l6.2-0.9h1.2l6.8,0.9v2.4h-14.2V49.7z M364.9,13.7l3.7,1.4l-7.1-0.9v-2.4h8.8l24.5,34.3v6.4h-1.9L364.9,13.7z
			 M366.2,11.9l2.9,2.4v37.8h-2.9V11.9z M385.7,11.9h14.2v2.4l-5.9,0.9h-1.2l-7.1-0.9V11.9z M391.9,11.9h3v40.6l-3-3V11.9z"/>
	</g>
</g>
<rect x="-700.7" y="115" style="fill:none;" width="0" height="2.2"/>
</svg>
